<?xml version="1.0" encoding="UTF-8"?>
<svg width="455px" height="322px" viewBox="0 0 455 322" version="1.1" xmlns="http://www.w3.org/2000/svg" xmlns:xlink="http://www.w3.org/1999/xlink">
    <!-- Generator: Sketch 44.1 (41455) - http://www.bohemiancoding.com/sketch -->
    <title>Group 5</title>
    <desc>Created with Sketch.</desc>
    <defs>
        <linearGradient x1="5.34760591%" y1="100%" x2="94.3504725%" y2="8.64593637%" id="linearGradient-1">
            <stop stop-color="#C4F7FF" offset="0%"></stop>
            <stop stop-color="#E8E8E8" offset="36.8821747%"></stop>
            <stop stop-color="#FAEF67" offset="67.1257175%"></stop>
            <stop stop-color="#F5A92A" offset="100%"></stop>
        </linearGradient>
    </defs>
    <g id="Page-1" stroke="none" stroke-width="1" fill="none" fill-rule="evenodd">
        <g id="Desktop-HD-Copy-4" transform="translate(-130.000000, -465.000000)">
            <g id="Group-9" transform="translate(127.000000, 303.000000)">
                <g id="Group-5" transform="translate(3.000000, 162.000000)">
                    <text id="&gt;-10,000" font-family="HelveticaNeue, Helvetica Neue" font-size="16" font-weight="normal" line-spacing="16" fill="#ECAB20">
                        <tspan x="392" y="320">&gt; 1</tspan>
                        <tspan x="414.944" y="320" letter-spacing="-0.192">0</tspan>
                        <tspan x="423.648" y="320" letter-spacing="-0.184">,</tspan>
                        <tspan x="427.912" y="320">000</tspan>
                    </text>
                    <path d="M429,54.4994831 L429,296.333694" id="Stroke-1081" stroke="#FFA631"></path>
                    <text id="5,000---9,999" font-family="HelveticaNeue, Helvetica Neue" font-size="16" font-weight="normal" line-spacing="16" fill="#F9EF14">
                        <tspan x="249" y="320">5</tspan>
                        <tspan x="257.896" y="320" letter-spacing="-0.184">,</tspan>
                        <tspan x="262.16" y="320">000 - </tspan>
                        <tspan x="303.968" y="320" letter-spacing="-0.696">9</tspan>
                        <tspan x="312.168" y="320" letter-spacing="-0.7424">,</tspan>
                        <tspan x="315.8736" y="320" letter-spacing="0.0784">9</tspan>
                        <tspan x="324.848" y="320" letter-spacing="0.08">9</tspan>
                        <tspan x="333.824" y="320">9</tspan>
                    </text>
                    <path d="M297,207 L297,296.668877" id="Stroke-1083" stroke="#FFED6E"></path>
                    <g id="Group-4" transform="translate(120.000000, 129.000000)" font-size="16" font-family="HelveticaNeue, Helvetica Neue" fill="#FFFFFF" font-weight="normal">
                        <text id="1,000---4,999">
                            <tspan x="0" y="17">1</tspan>
                            <tspan x="8.896" y="17" letter-spacing="-0.184">,</tspan>
                            <tspan x="13.16" y="17">000 - </tspan>
                            <tspan x="54.968" y="17" letter-spacing="0.248">4</tspan>
                            <tspan x="64.112" y="17" letter-spacing="-0.7456">,</tspan>
                            <tspan x="67.8144" y="17" letter-spacing="0.0816">9</tspan>
                            <tspan x="76.792" y="17" letter-spacing="0.0784">9</tspan>
                            <tspan x="85.7664" y="17">9</tspan>
                        </text>
                    </g>
                    <path d="M167,158 L167,211.913169" id="Stroke-1089" stroke="#FFFFFF" stroke-linecap="round"></path>
                    <text id="0---1,000" font-family="HelveticaNeue, Helvetica Neue" font-size="16" font-weight="normal" letter-spacing="-0.112" fill="#C4F7FF">
                        <tspan x="0" y="146">0 </tspan>
                        <tspan x="13.12" y="146">- 1</tspan>
                        <tspan x="32.688" y="146" letter-spacing="-0.184">,</tspan>
                        <tspan x="36.952" y="146">000</tspan>
                    </text>
                    <path d="M33.3333333,158.869656 L33.3333333,305.778" id="Stroke-1085" stroke="#C4F7FF" stroke-linecap="round"></path>
                    <path d="M446.810808,0.994065337 L448.108222,5.16287431 C448.293706,5.75579876 448.822824,6.15617557 449.419303,6.15617557 L453.620033,6.15617557 C454.954544,6.15617557 455.509044,7.93902399 454.42933,8.75811549 L451.031063,11.3345861 C450.547828,11.7013435 450.345748,12.3492816 450.531232,12.9432248 L451.828646,17.111015 C452.240616,18.4364354 450.787981,19.5377264 449.708268,18.7186349 L446.310001,16.143183 C445.826765,15.7764256 445.172689,15.7764256 444.689454,16.143183 L441.292163,18.7186349 C440.211473,19.5377264 438.758839,18.4364354 439.170809,17.111015 L440.469199,12.9432248 C440.652731,12.3492816 440.45065,11.7013435 439.968391,11.3345861 L436.571101,8.75811549 C435.490411,7.93902399 436.045887,6.15617557 437.380398,6.15617557 L441.581128,6.15617557 C442.177607,6.15617557 442.706725,5.75579876 442.891233,5.16287431 L444.188647,0.994065337 C444.601593,-0.331355112 446.397862,-0.331355112 446.810808,0.994065337" id="Fill-1077-Copy" fill="#F5A92A"></path>
                    <path d="M19.7707819,305.613283 C19.7707819,305.613283 52.9474797,243.633315 148.992273,217.405781 C245.037065,191.178247 332.72096,253.829532 434,40" id="Path-2" stroke="url(#linearGradient-1)" stroke-width="22" stroke-linecap="round"></path>
                </g>
            </g>
        </g>
    </g>
</svg>