<?xml version="1.0" encoding="UTF-8"?>
<svg width="11px" height="10px" viewBox="0 0 11 10" version="1.1" xmlns="http://www.w3.org/2000/svg" xmlns:xlink="http://www.w3.org/1999/xlink">
    <!-- Generator: Sketch 43.2 (39069) - http://www.bohemiancoding.com/sketch -->
    <title>Fill 4</title>
    <desc>Created with Sketch.</desc>
    <defs></defs>
    <g id="Page-1" stroke="none" stroke-width="1" fill="none" fill-rule="evenodd">
        <g id="tags" transform="translate(-193.000000, -121.000000)" fill="#FFA631">
            <g transform="translate(186.000000, 115.000000)" id="Page-1">
                <g transform="translate(7.000000, 5.000000)">
                    <path d="M6.00346417,1.573 L6.85246417,4.185 L9.59846417,4.185 C10.4004642,4.185 10.7344642,5.213 10.0854642,5.685 L7.86346417,7.3 L8.71246417,9.911 C8.96046417,10.675 8.08646417,11.31 7.43646417,10.838 L5.21446417,9.223 L2.99246417,10.838 C2.34346417,11.31 1.46846417,10.675 1.71746417,9.911 L2.56546417,7.3 L0.343464166,5.685 C-0.306535834,5.213 0.0274641657,4.185 0.831464166,4.185 L3.57746417,4.185 L4.42646417,1.573 C4.67446417,0.809 5.75546417,0.809 6.00346417,1.573" id="Fill-4"></path>
                </g>
            </g>
        </g>
    </g>
</svg>
